<?xml version="1.0" encoding="UTF-8" standalone="no"?>
<svg
  id="Bun"
  viewBox="0 0 80 70"
  version="1.1"
  sodipodi:docname="dumplingbot.svg"
  inkscape:version="1.4.2 (ebf0e940d0, 2025-05-08)"
  xmlns:inkscape="http://www.inkscape.org/namespaces/inkscape"
  xmlns:sodipodi="http://sodipodi.sourceforge.net/DTD/sodipodi-0.dtd"
  xmlns="http://www.w3.org/2000/svg"
  xmlns:svg="http://www.w3.org/2000/svg"
  xmlns:rdf="http://www.w3.org/1999/02/22-rdf-syntax-ns#"
  xmlns:cc="http://creativecommons.org/ns#"
  xmlns:dc="http://purl.org/dc/elements/1.1/"
>
  <defs
    id="defs1"
  >
    <linearGradient
      id="swatch1"
      inkscape:swatch="solid"
    >
      <stop
        style="stop-color: #ffffff; stop-opacity: 1"
        offset="0"
        id="stop1"
      />
    </linearGradient>
  </defs>
  <sodipodi:namedview
    id="namedview1"
    pagecolor="#ffffff"
    bordercolor="#000000"
    borderopacity="0.25"
    inkscape:showpageshadow="2"
    inkscape:pageopacity="0.0"
    inkscape:pagecheckerboard="0"
    inkscape:deskcolor="#d1d1d1"
    inkscape:zoom="7.9701036"
    inkscape:cx="29.547922"
    inkscape:cy="31.806362"
    inkscape:window-width="1920"
    inkscape:window-height="998"
    inkscape:window-x="0"
    inkscape:window-y="0"
    inkscape:window-maximized="1"
    inkscape:current-layer="Bun"
  />
  <title
    id="title1"
  >Bun Logo</title>
  <g
    id="Body"
    transform="translate(1.9,1.9)"
  >
    <path
      id="Background"
      d="M 73,35.7 C 73,50.91 57.33,63.24 38,63.24 18.67,63.24 3,50.91 3,35.7 3,26.27 9,17.94 18.22,13 27.44,8.06 33.18,3 38,3 42.82,3 46.94,7.13 57.78,13 67,17.94 73,26.27 73,35.7 Z"
      style="fill: #5865f2; fill-opacity: 1; stroke: #000000; stroke-opacity: 1; stroke-width: 2; stroke-dasharray: none"
    />
    <path
      id="Bottom_Shadow"
      data-name="Bottom Shadow"
      d="m 72.184453,36.273615 a 21.036854,20.527763 0 0 0 -0.776626,-5.475333 c -2.650235,31.54474 -42.083416,33.060403 -57.586809,23.6254 a 38.831295,37.891579 0 0 0 24.386053,7.938285 c 18.736099,0 33.977382,-11.699025 33.977382,-26.088352 z"
      style="fill: #2b3071; fill-opacity: 1; stroke-width: 0.958964"
    />
    <path
      id="Light_Shine"
      data-name="Light Shine"
      d="M 24.586307,11.92887 C 28.869985,9.290966 34.562386,4.3399737 40.15896,4.3301308 A 8.9027662,9.1440794 0 0 0 37.494839,3.887199 c -2.319127,0 -4.791587,1.230366 -7.906118,3.0808362 -1.082899,0.6496332 -2.20413,1.3681669 -3.392443,2.1162294 C 23.963402,10.501646 21.404694,12.106043 18.529743,13.710439 9.4065634,18.779547 3.9537389,27.136193 3.9537389,36.07357 c 0,0.393718 0,0.787435 0,1.171309 C 9.7611407,16.171172 20.312212,14.566775 24.586307,11.92887 Z"
      style="fill: #61b7ff; fill-opacity: 1; stroke-width: 0.971218"
    />
    <path
      id="Top"
      d="M 35.12,5.53 A 16.41,16.41 0 0 1 29.49,18 c -0.28,0.25 -0.06,0.73 0.3,0.59 3.37,-1.31 7.92,-5.23 6,-13.14 C 35.71,5 35.12,5.12 35.12,5.53 Z m 2.27,0 A 16.24,16.24 0 0 1 39,19 c -0.12,0.35 0.31,0.65 0.55,0.36 C 41.74,16.56 43.65,11 37.93,5 37.64,4.74 37.19,5.14 37.39,5.49 Z M 40.15,5.36 A 16.42,16.42 0 0 1 47,17.12 0.33,0.33 0 0 0 47.65,17.23 C 48.57,13.74 48.05,7.79 40.48,4.7 40.08,4.54 39.82,5.08 40.15,5.32 Z m -18.46,10.4 a 16.94,16.94 0 0 0 10.47,-9 c 0.18,-0.36 0.75,-0.22 0.66,0.18 -1.73,8 -7.52,9.67 -11.12,9.45 -0.38,0.01 -0.37,-0.52 -0.01,-0.63 z"
      style="fill: #163a85; fill-opacity: 1; fill-rule: evenodd; stroke: #ffffff; stroke-opacity: 1; stroke-width: 0.25; stroke-dasharray: none"
    />
  </g>
  <g
    id="Face"
    transform="translate(1.9,1.9)"
    style="fill: #000000; fill-opacity: 1"
  >
    <path
      id="Eyes"
      d="m 25.7,38.8 a 5.51,5.51 0 1 0 -5.5,-5.51 5.51,5.51 0 0 0 5.5,5.51 z m 24.77,0 A 5.51,5.51 0 1 0 45,33.29 5.5,5.5 0 0 0 50.47,38.8 Z"
      style="fill: #000000; fill-opacity: 1; fill-rule: evenodd; stroke: #ffffff; stroke-opacity: 1"
    />
    <path
      d="m 29.77433,34.064589 a 5.0784228,5.0784228 0 0 1 -1.660582,2.678541 3.872795,3.872795 0 0 1 -2.27477,1.069142 3.8898558,3.8898558 0 0 1 -2.348699,-1.069142 5.0784228,5.0784228 0 0 1 -1.637834,-2.678541 0.4094585,0.4094585 0 0 1 0.454954,-0.460641 h 7.017664 a 0.4094585,0.4094585 0 0 1 0.449267,0.460641 z"
      style="fill: #7f0054; fill-opacity: 1"
      id="path1-9"
    />
    <path
      d="m 54.600693,34.007554 a 5.0784228,5.0784228 0 0 1 -1.660582,2.678541 3.872795,3.872795 0 0 1 -2.27477,1.069142 3.8898558,3.8898558 0 0 1 -2.348699,-1.069142 5.0784228,5.0784228 0 0 1 -1.637834,-2.678541 0.4094585,0.4094585 0 0 1 0.454954,-0.460641 h 7.017664 a 0.4094585,0.4094585 0 0 1 0.449267,0.460641 z"
      style="fill: #7f0054; fill-opacity: 1"
      id="path1-9-0"
    />
  </g>
  <metadata
    id="metadata1"
  >
    <rdf:RDF>
      <cc:Work
        rdf:about=""
      >
        <dc:title>Bun Logo</dc:title>
      </cc:Work>
    </rdf:RDF>
  </metadata>
</svg>
